{
    "asset" : {
        "generator" : "Khronos glTF Blender I/O v1.7.33",
        "version" : "2.0"
    },
    "scene" : 0,
    "scenes" : [
        {
            "name" : "Scene",
            "nodes" : [
                0
            ]
        }
    ],
    "nodes" : [
        {
            "mesh" : 0,
            "name" : "Cylinder",
            "scale" : [
                1,
                1.4211095571517944,
                1
            ],
            "translation" : [
                0,
                0.011138916015625,
                0
            ]
        }
    ],
    "meshes" : [
        {
            "name" : "Cylinder",
            "primitives" : [
                {
                    "attributes" : {
                        "POSITION" : 0,
                        "NORMAL" : 1,
                        "TEXCOORD_0" : 2
                    },
                    "indices" : 3
                }
            ]
        }
    ],
    "accessors" : [
        {
            "bufferView" : 0,
            "componentType" : 5126,
            "count" : 2297,
            "max" : [
                1.9496606588363647,
                2.7868616580963135,
                1.9494917392730713
            ],
            "min" : [
                -1.9494917392730713,
                -0.03208296000957489,
                -1.9483544826507568
            ],
            "type" : "VEC3"
        },
        {
            "bufferView" : 1,
            "componentType" : 5126,
            "count" : 2297,
            "type" : "VEC3"
        },
        {
            "bufferView" : 2,
            "componentType" : 5126,
            "count" : 2297,
            "type" : "VEC2"
        },
        {
            "bufferView" : 3,
            "componentType" : 5123,
            "count" : 12288,
            "type" : "SCALAR"
        }
    ],
    "bufferViews" : [
        {
            "buffer" : 0,
            "byteLength" : 27564,
            "byteOffset" : 0
        },
        {
            "buffer" : 0,
            "byteLength" : 27564,
            "byteOffset" : 27564
        },
        {
            "buffer" : 0,
            "byteLength" : 18376,
            "byteOffset" : 55128
        },
        {
            "buffer" : 0,
            "byteLength" : 24576,
            "byteOffset" : 73504
        }
    ],
    "buffers" : [
        {
            "byteLength" : 98080,
            "uri" : "data:application/octet-stream;base64,"
        }
    ]
}
